<svg id="Layer_1" data-name="Layer 1" xmlns="http://www.w3.org/2000/svg" viewBox="0 0 36 36"><defs><style>.cls-1{fill:#211749;}.cls-2{fill:#fc509f;}.cls-3{font-size:1.67px;font-family:MabryPro-Bold, Mabry Pro;font-weight:700;}.cls-4{letter-spacing:0em;}</style></defs><path class="cls-1" d="M9,10V30H27V10ZM23.5,22h-11V21h11Zm0-2.5h-11v-1h11Zm0-2.5h-11V16h11Z"/><path class="cls-2" d="M11.25,6H24a0,0,0,0,1,0,0V9a0,0,0,0,1,0,0H9A0,0,0,0,1,9,9V8.25A2.25,2.25,0,0,1,11.25,6Z"/><text class="cls-3" transform="translate(0.85 2.47)">L<tspan class="cls-4" x="1.08" y="0">e</tspan><tspan x="1.98" y="0">arn</tspan></text></svg>