<svg width="32" height="32" viewBox="0 0 32 32" fill="none" xmlns="http://www.w3.org/2000/svg">
<path d="M28 13.707H4C2.93913 13.707 1.92172 14.1285 1.17157 14.8786C0.421427 15.6287 0 16.6462 0 17.707V32.0004H32V17.707C32 16.6462 31.5786 15.6287 30.8284 14.8786C30.0783 14.1285 29.0609 13.707 28 13.707ZM17.2 22.6004V26.3204H14.9067V22.6004C14.4695 22.3479 14.1278 21.9583 13.9346 21.4919C13.7414 21.0255 13.7075 20.5084 13.8381 20.0207C13.9688 19.5331 14.2567 19.1022 14.6572 18.7949C15.0578 18.4875 15.5485 18.3209 16.0533 18.3209C16.5582 18.3209 17.0489 18.4875 17.4494 18.7949C17.8499 19.1022 18.1379 19.5331 18.2685 20.0207C18.3992 20.5084 18.3653 21.0255 18.1721 21.4919C17.9789 21.9583 17.6372 22.3479 17.2 22.6004Z" fill="#211749"/>
<path d="M19.2412 0H12.8945C10.3577 0.0421 7.9414 1.08946 6.17636 2.912C4.41133 4.73454 3.44194 7.18318 3.48116 9.72V12.56H6.92116V9.72C6.89616 8.10843 7.51068 6.55261 8.6302 5.3931C9.74972 4.2336 11.283 3.56488 12.8945 3.53333H19.2412C20.8514 3.56487 22.3834 4.23402 23.5008 5.39392C24.6182 6.55382 25.2297 8.10968 25.2012 9.72V12.56H28.6545V9.72C28.6902 7.18421 27.7196 4.73759 25.9553 2.91583C24.191 1.09406 21.7768 0.0456023 19.2412 0Z" fill="#EA5D9E"/>
</svg>
