<svg width="109" height="32" viewBox="0 0 109 32" fill="none" xmlns="http://www.w3.org/2000/svg">
<g clip-path="url(#clip0)">
<path d="M29.1571 22.9618C27.711 22.3215 26.146 21.9977 24.5659 22.0122C22.9858 22.0266 21.4269 22.3789 19.9927 23.0456C20.3942 23.2533 20.7908 23.4711 21.1774 23.7023C21.564 23.9335 21.9439 24.178 22.3154 24.4327C22.7398 24.7264 23.1536 25.0341 23.5568 25.3558C23.6851 25.4596 23.8134 25.5635 23.94 25.669C24.5646 26.1933 25.1593 26.7526 25.7213 27.3443C26.5084 28.1781 27.2272 29.0745 27.8707 30.0247C28.0374 30.2777 28.204 30.5273 28.3706 30.792C28.8072 30.42 29.2265 30.0292 29.6286 29.6193L29.6403 29.6092C30.1191 29.1188 30.5724 28.6038 30.9983 28.0663C31.1094 27.9323 31.2143 27.7966 31.3132 27.6592C31.3999 27.5436 31.4798 27.428 31.5681 27.3108C31.9014 26.8439 32.2158 26.3603 32.5112 25.86C32.5846 25.736 32.6579 25.6104 32.7279 25.4847C31.715 24.415 30.5014 23.5575 29.1571 22.9618Z" fill="#382383"/>
<path d="M18.2782 24.0407L17.945 23.8967C17.2919 24.0673 16.6203 24.1562 15.9455 24.1613H15.8888C14.6032 24.1614 13.336 23.8545 12.1915 23.2659C11.0469 22.6773 10.0578 21.8238 9.30547 20.7757C8.43028 19.5559 7.90734 18.1167 7.79437 16.617C7.6814 15.1173 7.9828 13.6153 8.6653 12.2769C9.34779 10.9386 10.3848 9.81582 11.662 9.03265C12.9391 8.24947 14.4066 7.83631 15.9026 7.83879C17.3985 7.84127 18.8647 8.25928 20.1392 9.04668C21.4138 9.83409 22.4471 10.9603 23.1252 12.3009C23.8033 13.6415 24.0998 15.1444 23.9819 16.6438C23.864 18.1431 23.3364 19.5806 22.4572 20.7974C24.9207 20.3568 27.459 20.6653 29.7471 21.6836C30.6843 19.3698 31.0338 16.8578 30.764 14.3742C30.4942 11.8906 29.6136 9.51369 28.2015 7.45787C26.7895 5.40205 24.8906 3.73207 22.6761 2.59861C20.4617 1.46516 18.0013 0.903908 15.5172 0.965514C13.033 1.02712 10.6032 1.70964 8.44699 2.95148C6.29079 4.19332 4.47607 5.95541 3.16659 8.07872C1.85712 10.202 1.0941 12.6197 0.946388 15.1137C0.798681 17.6076 1.27093 20.0993 2.32053 22.3638C2.54628 22.8502 2.79826 23.3239 3.07534 23.7827C4.10197 25.4894 5.45541 26.9742 7.05718 28.151C8.65895 29.3278 10.4772 30.1731 12.4064 30.6379C12.8579 30.7468 13.3195 30.8339 13.786 30.9009C14.4822 30.9987 15.1843 31.0474 15.8872 31.0466C18.9357 31.0518 21.9123 30.1162 24.4151 28.3662C22.667 26.5389 20.5829 25.0699 18.2782 24.0407Z" fill="#382383"/>
<path d="M45.7999 19.4441C45.0767 20.7206 43.7437 21.5331 41.9842 21.5331C38.53 21.5331 36.064 18.975 36.064 15.1387C36.064 11.2487 38.53 8.63867 41.9059 8.63867C43.6971 8.63867 45.2284 9.49975 45.9299 10.7528V8.90001H49.1224V26.4399H45.7999V19.4441ZM42.659 11.5067C40.8161 11.5067 39.3881 12.9156 39.3881 15.1353C39.3881 17.3266 40.8161 18.6852 42.659 18.6852C44.4502 18.6852 45.9299 17.3266 45.9299 15.1353C45.9299 12.919 44.4502 11.5067 42.659 11.5067Z" fill="#382383"/>
<path d="M62.9355 8.90039V21.2722H59.638V19.4445C58.9898 20.7243 57.6385 21.5335 55.9006 21.5335C53.0963 21.5335 51.2534 19.8884 51.2534 16.7573V8.90039H54.5743V15.9214C54.5743 17.6972 55.3791 18.6621 56.8337 18.6621C58.5983 18.6621 59.6363 17.3571 59.6363 15.2697V8.90374L62.9355 8.90039Z" fill="#382383"/>
<path d="M68.3894 8.9011V21.2729H65.0719V8.9011H68.3894ZM68.6193 5.27418C68.6193 5.64825 68.509 6.01393 68.3023 6.32496C68.0956 6.636 67.8018 6.87842 67.458 7.02157C67.1143 7.16472 66.736 7.20218 66.3711 7.1292C66.0062 7.05622 65.671 6.87608 65.4079 6.61157C65.1448 6.34706 64.9657 6.01005 64.8931 5.64316C64.8205 5.27627 64.8577 4.89598 65.0001 4.55038C65.1425 4.20478 65.3836 3.90939 65.693 3.70157C66.0024 3.49374 66.3661 3.38281 66.7381 3.38281C66.9852 3.38259 67.23 3.43136 67.4583 3.52634C67.6866 3.62131 67.8941 3.76062 68.0688 3.93629C68.2436 4.11196 68.3821 4.32055 68.4766 4.55012C68.571 4.77969 68.6196 5.02574 68.6193 5.27418Z" fill="#382383"/>
<path d="M75.6593 8.63919C77.3972 8.63919 78.8002 9.47682 79.5533 10.7534V3.00195H82.8758V21.2723H79.6833V19.4982C78.8785 20.7764 77.4755 21.5336 75.7359 21.5336C72.2568 21.5336 69.8174 18.9755 69.8174 15.1392C69.8174 11.2492 72.2834 8.63919 75.6593 8.63919ZM76.4107 11.5072C74.5679 11.5072 73.1399 12.9161 73.1399 15.1358C73.1399 17.3271 74.5679 18.6857 76.4107 18.6857C78.202 18.6857 79.6833 17.3271 79.6833 15.1358C79.6833 12.9195 78.202 11.5072 76.4107 11.5072Z" fill="#382383"/>
<path d="M89.2892 13.7281C90.0007 13.7211 90.71 13.809 91.3986 13.9894L92.49 14.2508V13.4684C92.49 12.0847 91.5019 11.2487 89.9706 11.2487C88.491 11.2487 87.5829 12.0579 87.3046 13.311L84.4087 12.5286C85.0569 10.1263 87.0047 8.63867 89.9906 8.63867C93.7281 8.63867 95.6559 10.4144 95.6559 13.6494V21.2718H92.6133V19.367C91.8069 20.8027 90.5355 21.5331 88.536 21.5331C86.4082 21.5331 84.487 20.0706 84.487 17.6968C84.487 15.0599 86.3815 13.7281 89.2892 13.7281ZM92.4834 16.5995L91.7319 16.365C91.1111 16.1555 90.4647 16.0326 89.8107 15.9997C88.5893 15.9997 87.8628 16.5224 87.8628 17.4874C87.8628 18.4004 88.5377 18.975 89.8623 18.975C91.3936 18.975 92.485 18.1374 92.485 16.7034L92.4834 16.5995Z" fill="#382383"/>
<path d="M104.243 14.7202L108.709 21.2722H104.945L102.427 17.3303L99.9278 21.2722H96.1704L100.636 14.7202L96.637 8.90039H100.396L102.422 12.137L104.478 8.90039H108.242L104.243 14.7202Z" fill="#382383"/>
</g>
<defs>
<clipPath id="clip0">
<rect width="107.788" height="30.0926" fill="white" transform="translate(0.920898 0.953125)"/>
</clipPath>
</defs>
</svg>
