<svg width="24" height="24" viewBox="0 0 24 24" fill="none" xmlns="http://www.w3.org/2000/svg">
<path d="M24.0008 17.1V24H0.000792126V17.1C-0.0255297 15.2643 0.6049 13.4796 1.7784 12.0678C2.9519 10.6559 4.59123 9.70979 6.40079 9.40002C7.00525 10.2782 7.81053 10.9994 8.74972 11.5037C9.68891 12.0081 10.7349 12.2811 11.8008 12.3C12.9087 12.2809 13.9977 12.0099 14.9853 11.5074C15.9728 11.005 16.8331 10.2843 17.5008 9.40002C19.3287 9.68827 20.9916 10.6251 22.1852 12.0391C23.3789 13.4531 24.0234 15.2497 24.0008 17.1Z" fill="#23164C"/>
<path d="M12.0014 11.2C15.0942 11.2 17.6014 8.69279 17.6014 5.6C17.6014 2.50721 15.0942 0 12.0014 0C8.90857 0 6.40137 2.50721 6.40137 5.6C6.40137 8.69279 8.90857 11.2 12.0014 11.2Z" fill="#FC509F"/>
</svg>
