<svg width="32" height="33" viewBox="0 0 32 33" fill="none" xmlns="http://www.w3.org/2000/svg">
<path d="M19.6266 0.000120011H12.3866C10.6185 0.000120011 8.92283 0.702499 7.67259 1.95274C6.42235 3.20298 5.71997 4.89868 5.71997 6.66679V10.2935H9.18664V6.66679C9.19365 5.80735 9.53908 4.98529 10.1481 4.37881C10.757 3.77232 11.5805 3.43027 12.44 3.42679H19.68C20.5312 3.44074 21.3431 3.78782 21.9414 4.39356C22.5396 4.9993 22.8766 5.81542 22.88 6.66679V10.2935H26.3333V6.66679C26.3333 5.78793 26.1596 4.91775 25.822 4.10629C25.4845 3.29484 24.9899 2.55813 24.3666 1.93854C23.7433 1.31896 23.0036 0.828733 22.1901 0.496063C21.3767 0.163393 20.5055 -0.00515312 19.6266 0.000120011Z" fill="#EA5D9E"/>
<path d="M32 32.0402H0L2.24 11.5469H29.76L32 32.0402Z" fill="#211749"/>
<path d="M8.49518 20.8399L14.1485 20.4933L13.7885 14.9199L20.7218 21.0399L22.0685 27.4799L15.4552 26.9866L8.49518 20.8399Z" fill="white"/>
</svg>
